<svg xmlns="http://www.w3.org/2000/svg" xmlns:xlink="http://www.w3.org/1999/xlink" width="46.435" height="51" viewBox="0 0 46.435 51"><defs><style>.a{fill:url(#a);}</style><linearGradient id="a" x1="0.5" x2="0.5" y2="1" gradientUnits="objectBoundingBox"><stop offset="0" stop-color="#df177e"/><stop offset="1" stop-color="#443490"/></linearGradient></defs><path class="a" d="M-406.9,352.346c6.543,2.542,12.276,6.551,18.259,10.1a6.916,6.916,0,0,1,3.586,4.613c-2.543-.358-4.87.458-7.32-1.292-3.915-2.8-8.26-5-12.453-7.4a5.573,5.573,0,0,0-5.752-.012c-4.259,2.379-8.528,4.744-12.708,7.255-2.2,1.321-2.918,3.043-2.72,5.684h5.236c3.073,0,3.071,0,3.895,3q.85,3.1,1.716,6.192c.019.066.118.109.282.254.84-1.648,1.648-3.271,2.492-4.876.593-1.129,1.207-2.249,1.864-3.341a2.9,2.9,0,0,1,5.219.043c1.529,2.679,2.941,5.426,4.545,8.4.736-2.69,1.4-5.154,2.088-7.609.655-2.326.026-2.049,2.662-2.062,3.378-.017,6.756,0,10.134-.008.629,0,1.2-.02,1.189.873-.086,5.109-.125,10.218-.25,15.326a6.785,6.785,0,0,1-3.674,5.885q-6.43,3.773-12.912,7.458c-1.186.676-2.43,1.253-3.666,1.836a5.911,5.911,0,0,1-5.664-.1q-8.542-4.886-16.985-9.943a5.974,5.974,0,0,1-2.914-5.011c-.148-2.629-.243-5.262-.37-8.107,1.549,0,2.857-.049,4.154.045.232.017.576.612.6.959.124,1.636.135,3.28.225,4.92a4.8,4.8,0,0,0,2.2,4.059q6.84,4.138,13.792,8.088a4.7,4.7,0,0,0,4.735-.1q6.7-3.7,13.309-7.559a5.015,5.015,0,0,0,2.537-4.444c.047-3.363.013-6.727.013-10.287-1.467,0-3.009-.057-4.539.047-.314.022-.729.605-.855,1.006-.846,2.7-1.636,5.412-2.423,8.128-.385,1.329-.891,2.519-2.49,2.721-1.616.2-2.516-.694-3.237-2-1.579-2.857-3.216-5.682-4.92-8.678-1.434,2.542-2.789,4.948-4.15,7.35-.4.714-.8,1.438-1.249,2.122a2.657,2.657,0,0,1-2.853,1.185,2.517,2.517,0,0,1-2.1-1.911c-.851-2.883-1.706-5.766-2.492-8.667a1.554,1.554,0,0,0-1.809-1.36c-2.326.071-4.656-.027-6.983.014-.984.018-1.427-.261-1.331-1.321.2-2.268.28-4.548.517-6.812A5.067,5.067,0,0,1-428,363.087c5.86-3.419,11.781-6.736,17.692-10.068a12.359,12.359,0,0,1,1.759-.673Z" transform="translate(431.123 -352.346)"/></svg>